<?xml version="1.0" encoding="utf-8"?>
<!-- Generator: Adobe Illustrator 23.0.3, SVG Export Plug-In . SVG Version: 6.00 Build 0)  -->
<svg version="1.1" id="Layer_1" xmlns="http://www.w3.org/2000/svg" xmlns:xlink="http://www.w3.org/1999/xlink" x="0px" y="0px"
	 viewBox="0 0 1116 730" style="enable-background:new 0 0 1116 730;" xml:space="preserve">
<style type="text/css">
	.st0{fill:#2FD8BE;}
	.st1{fill:none;stroke:#11D2B5;stroke-width:2;stroke-miterlimit:10;}
	.st2{fill:#11D2B5;}
	.st3{opacity:0.42;fill:#11D2B5;}
</style>
<path class="st0" d="M205.8,562.3c-0.8,0.6,4.5,6-4.9-0.9c-0.9-0.7-1.9-1.3-2.7-2.1s-1.7-1.5-2.6-2.2c-1.7-1.5-3.4-2.9-5.1-4.3
	c-1.6-1.5-3.1-3-4.7-4.5c-1.6-1.5-3.1-3-4.5-4.6c-2.9-3.1-5.7-6.2-8.3-9.5c-1.3-1.6-2.6-3.2-3.9-4.8l-3.6-5c-2.5-3.3-4.7-6.8-7-10.2
	c-1.2-1.7-2.2-3.5-3.3-5.3s-2.2-3.6-3.3-5.4c-4.1-7.4-8.3-14.9-12.2-23.2c-0.8-0.5-1.6-1.2-2.5-1.8c-10.8-26.2-16.6-55.7-16.1-85.6
	l-0.1-2.6l0-2.9l0-5.7l-0.1-11.5c0-7.6-0.1-15.2-0.1-22.9l0-5.7c0-1,0-1.8,0-2.7l0.1-2.6c0.1-3.4,0.1-6.9,0.4-10.3
	c0.4-6.9,1.2-13.7,2.2-20.5c4.2-27.1,13.6-53.4,27.5-77c-0.6,0.5-1.1,0.8-1.1,0.4c0-0.4,0.4-1.6,1.8-3.9c5.8-9.9,13.9-21,24.1-32
	c10.1-11,22.4-21.7,35.8-31.1c3.9-3,8-5.6,11.9-8.2c3-2.2,3.6-3.1,4-3.7c13-7.4,25.2-12.7,36.9-16.7l7.1-2.6
	c2.4-0.8,4.8-1.5,7.3-2.3l3.6-1.1c1.2-0.3,2.5-0.6,3.7-0.9l7.4-1.9l7.5-1.5c1.2-0.2,2.5-0.5,3.8-0.7l3.8-0.6c2.5-0.3,5-0.8,7.6-1.1
	l7.6-0.7c2.5-0.3,5.1-0.4,7.7-0.5l3.9-0.2c1.3-0.1,2.5-0.1,4-0.2c5.6-0.1,11.2-0.2,16.8-0.3c11.2-0.2,22.4-0.4,33.6-0.6
	c44.9-0.8,90.1-1.7,135.9-2.5c45.8-0.8,92.2-1.7,139.3-2.6c23.5-0.4,47.3-0.9,71.2-1.3c12-0.2,24-0.4,36.1-0.7c1.5-0.1,2.9,0,4.4,0
	l4.3,0l4.3,0l4.3,0.2c2.9,0.2,5.8,0.3,8.7,0.6c2.9,0.3,5.8,0.6,8.7,0.9c1.2,0.1,2.5,0.2,3.7,0.4l3.7,0.5l3.7,0.5
	c1.2,0.2,2.5,0.3,3.7,0.6c4.8,1,9.7,1.8,14.5,3.1c9.7,2.2,19,5.4,28.3,8.8c2.3,0.9,4.5,1.9,6.8,2.8c1.1,0.5,2.3,0.9,3.4,1.4l3.3,1.6
	c2.2,1.1,4.4,2.1,6.7,3.2c2.2,1.2,4.3,2.3,6.5,3.5l3.2,1.8l3.1,1.9c2.1,1.3,4.2,2.5,6.2,3.8c2,1.3,4,2.7,6,4.1l3,2.1
	c1,0.7,1.9,1.4,2.9,2.2c11.4,8.6,22.8,18.9,33.2,30.8c10.4,11.8,19.9,25.1,27.8,39.2c7.9,14.1,14.3,29,19,43.8
	c4.7,14.8,7.6,29.6,9.2,43.4c0.5-1.1,1.3,0,2.3,2.7c0.5,1.4,0.9,3.2,1.4,5.4c0.5,2.2,0.9,4.7,1.4,7.5c1.6,11.1,2.4,27.1,3.5,42.3
	c0.5,7.6,1,15.1,1.5,21.8c0.2,3.4,0.4,6.5,0.5,9.4c0.2,2.9,0.2,5.5,0.3,7.9c0.1,2.3,0.2,4.3,0.4,5.8c0.1,1.5,0.3,2.6,0.5,3.2
	c0.5,1.2,1.2,0.4,2.3-3.1c-2,19.5-7.5,43.6-14.7,62.3c-1.8,4.7-3.4,9.1-5.2,13c-0.8,2-1.7,3.8-2.4,5.6c-0.7,1.8-1.6,3.4-2.3,4.8
	c-1.4,3-2.5,5.4-3.3,7.3c-0.9,1.8-1.3,3-1.4,3.4c-0.1,1.3-0.3,2.8-0.8,4.8c-0.2,1-0.5,2.1-0.8,3.3c-0.3,1.2-0.8,2.4-1.4,3.8
	c-0.5,1.4-1.2,2.9-1.8,4.5c-0.7,1.6-1.4,3.4-2.4,5.3c-1,1.9-2,3.8-3.2,6c-0.6,1.1-1.2,2.2-1.8,3.3c-0.7,1.1-1.4,2.3-2.2,3.5
	c-5.9,9.6-14.5,21.3-27.4,34.5c-1.6,1.7-3.3,3.3-5.1,5c-1.8,1.7-3.5,3.4-5.5,5.1c-2,1.7-4,3.4-6,5.2c-1,0.9-2.1,1.8-3.2,2.6
	c-1.1,0.8-2.2,1.7-3.3,2.6c-8.9,7.1-19.4,14-31.4,20.7c-2.4,1.2-4.8,2.6-7.4,3.8c-2.6,1.2-5.3,2.4-8,3.7c-2.7,1.3-5.5,2.3-8.4,3.5
	c-1.4,0.6-2.9,1.1-4.3,1.7l-2.2,0.8l-2.2,0.7c-3,1-6,2-8.9,3c-3,0.9-6.1,1.7-9.1,2.5c-1.5,0.4-3,0.8-4.5,1.2c-1.5,0.3-3,0.7-4.5,1
	c-3,0.6-6,1.3-8.9,1.9c-5.9,0.9-11.5,2-16.8,2.5c-2.7,0.3-5.2,0.6-7.7,0.9c-2.5,0.2-4.8,0.3-7.1,0.5c-2.2,0.2-4.3,0.3-6.3,0.5
	c-2,0.1-3.8,0.1-5.5,0.2c-3.3,0.1-6,0.3-7.9,0.4c-5.5,0.4-5.1,0.8-1.6,1.2c0.4,0,0.9,0.1,1.4,0.2c0.6,0,1.2,0.1,1.8,0.1
	c1.3,0.1,2.7,0.1,4.3,0.2c1.5,0.1,3.2,0.1,4.9,0.2c0.8,0,1.7,0,2.6,0.1c0.9,0,1.8,0,2.6,0c3.5-0.1,7-0.1,10.2-0.2
	c3.1-0.1,5.8-0.3,7.7-0.3c3.8-0.1,4.4,0.2-1.6,1.4c20.2-2.4,40.1-7,59.2-14c19-7,37.3-16.2,54.2-27.2c17-11,32.5-24.1,46.4-38.7
	c13.9-14.6,26.3-30.6,36.4-48c10.2-17.3,18.5-35.8,24.6-54.9c6.1-19.2,9.8-39,11.4-59l0.6-7.5l0.2-7.5l0.1-3.8
	c0-1.2,0.1-2.5,0.1-3.6l0-6.8l0-27.3l0-13.6c0-0.5,0-1.2,0-1.8l-0.1-1.9l-0.1-3.8c-0.1-2.5-0.1-5-0.2-7.5l-0.6-7.5
	c-0.2-2.5-0.3-5-0.7-7.5l-1-7.5l-0.5-3.7l-0.7-3.7c-3.3-19.8-8.9-39.1-16.6-57.7c-0.5-1.2-1-2.3-1.5-3.5l-1.5-3.4
	c-1-2.3-2.1-4.6-3.1-6.8l-3.4-6.7c-1.2-2.2-2.3-4.5-3.6-6.6c-2.5-4.3-4.9-8.7-7.7-12.9l-4.1-6.3c-1.4-2.1-2.9-4.1-4.3-6.1
	c-23.3-32.7-54.3-59.7-89.7-79c-17.8-9.5-36.6-17-56.1-22.3l-3.7-1l-3.7-0.9l-7.4-1.7l-1.8-0.4l-1.9-0.3l-3.7-0.7l-7.5-1.3l-7.5-0.9
	l-3.8-0.5l-1.9-0.2l-1.9-0.2l-7.6-0.6l-3.8-0.3l-3.8-0.1c-10.5-0.4-19.2-0.2-28.6-0.2c-9.2,0-18.5,0-27.8,0c-18.5,0-37.1,0-55.7,0
	c-25.3,0.6-87.1,1.1-168.2,1.5c-40.6,0.2-86,0.4-134.1,0.6c-6,0-12.1,0-18.2,0.1c-3,0-6.1,0-9.2,0c-1.6,0-3,0-4.7,0
	c-1.7,0.1-3.4,0.1-5,0.1s-3.4,0.1-5,0.1l-2.5,0.1l-2.5,0.2c-3.4,0.3-6.7,0.5-10.1,0.8c-3.4,0.4-6.7,0.8-10.1,1.3
	c-3.4,0.4-6.8,1-10.1,1.6c-3.4,0.6-6.8,1.2-10.1,2c-3.4,0.8-6.7,1.5-10,2.4c-3.3,0.9-6.6,1.9-10,2.9c-1.7,0.4-3.3,1.1-4.9,1.6
	l-4.9,1.7c-13.1,4.6-25.9,10.2-38.2,16.9c-12.3,6.7-24,14.4-35.2,23c-2.7,2.2-5.6,4.3-8.2,6.6l-7.9,6.9c-2.6,2.4-5.1,4.8-7.6,7.2
	l-1.9,1.8l-1.8,1.9l-3.6,3.8c-9.6,10.2-18.3,21.1-26.1,32.6c-7.7,11.5-14.5,23.6-20.4,36c-5.9,12.4-10.5,25.2-14.3,38.2
	c-0.5,1.6-0.9,3.2-1.4,4.9l-0.7,2.4l-0.5,2.4c-0.8,3.3-1.5,6.5-2.2,9.8c-1.2,6.5-2.5,13-3.2,19.6c-1,6.5-1.3,13-1.8,19.5
	c-0.2,3.2-0.2,6.5-0.3,9.7c0,1.6-0.1,3.2-0.1,4.8c0,1.5,0,2.9,0,4.4c0,11.7,0,23.3,0,34.6c0,2.8,0,5.6,0,8.4v2.1l0.1,2.3
	c0,1.5,0.1,3,0.1,4.5s0.1,3,0.1,4.5l0.1,2.2l0.2,2.2c0.2,3,0.4,5.9,0.7,8.8l0.2,2.2l0.3,2.2c0.2,1.5,0.4,2.9,0.6,4.3
	c0.2,1.4,0.4,2.9,0.6,4.3l0.3,2.1l0.4,2.1c1,5.6,1.9,11.2,3.3,16.6c2.3,10.9,5.7,21.2,9.1,31.1c0.9,2.5,1.9,4.9,2.8,7.2
	c1,2.4,1.8,4.8,2.9,7.1c2.1,4.6,4,9.2,6.3,13.5c8.7,17.4,18.6,32.3,28.5,44.9c9.9,12.5,19.7,22.8,28.4,30.9c2.1,2,4.4,3.8,6.6,5.7
	l3.3,2.8c1.1,0.9,2.3,1.8,3.4,2.7c10.1,8.3,21.2,15.8,33,22.7c5.9,3.5,12,6.6,18.2,9.6c3.1,1.4,6.3,2.8,9.5,4.3
	c3.2,1.4,6.5,2.6,9.7,3.9c13.1,4.9,26.6,8.9,40.4,11.8c13.8,2.7,27.8,4.3,41.7,4.9c3.5,0.1,7,0.1,10.4,0.2c0.9,0,1.7,0,2.5,0l2.4,0
	c1.6,0,3.2,0,4.8,0c6.3-0.1,12.6-0.1,18.9-0.2c12.5-0.1,24.7-0.3,36.6-0.4c23.8-0.3,46.3-0.7,66.6-1.2c37.2-1.3,75-2.8,112.7-4.3
	c-17.5-0.9-33.7-1.8-47.8-2.7c38.3,0.1,76.7,0.2,91.4-0.8c81.6-2.3,35.4-5,4-8.7c-22.6-1.6,8-4.1-27.4-5.7
	c25.5,0.1,38.3,0.1,63.9,0.2c2.9-1.5-78.7,0.8-60.9-1.7c24.6,0.6,52.1-0.3,77.6-0.3c-8.8-2.1-88.4-0.8-84.5-2.8
	c13.8-0.5,71.7,2.8,76.7,0.2c1-0.5-24.6-0.6-37.3-0.6c78.6-0.8,121.9-3.2,50.2-6c24.9,0.1,60.1,1.2,86.5,0.8c0,0-0.1,0-0.2,0
	c-13.2-0.1-35.8-0.6-48-0.7c14.9,0,29.9,0.1,44.9,0.1c-2.3-0.4-5-0.7-7.8-1.1c-11.2-0.3-22.4-0.6-34-0.6c9.9,0,19.8,0.1,29.8,0.1
	c-7.4-0.8-16-1.6-25.4-2.4c-35.4-1.7-69.3-4.1-88.4-4.1c-77.3-0.6-154.8-1.1-232.2-1.5c-19.4-0.1-38.7-0.2-58.1-0.3l-14.5-0.1
	c-0.6,0-1.2,0-1.8,0l-1.6,0l-3.3-0.1c-2.2-0.1-4.4-0.1-6.5-0.2c-8.7-0.6-17.4-1.5-26-3.1c-17.1-3.1-33.9-8.1-49.8-15.3
	C234.6,581.9,219.5,573,205.8,562.3z"/>
<path class="st0" d="M558.3,606.4c0.2,0.9,2.4,1.2-0.3,2.5c-1,0.4-2.1,0.7-3,0.8c-1,0.1-1.9,0-2.9-0.1c-1.8-0.3-3.7-1.1-5.6-2.3
	c-3.9-2.3-8.1-6.3-13.4-11.5c-0.6,0.1-1.2,0.2-1.9,0.2c-7.3-9.5-13.5-22.1-18.8-35.6c-5.5-12.2-10.2-25.2-14.2-38.5
	s-7.4-26.9-10.2-40.7c-0.4,0.8-0.9,1.3-1.6-1.5c-2.5-11.5-4.5-27.7-6-44.5c-0.3-2.5-0.7-5-1-7.4c-0.5-1.9-1.1-2.3-1.4-2.6
	c-0.6-7.7-0.9-14.5-1.1-20.8c-1.9-20.8-2.9-41.8-3-63.1s0.8-42.6,2.8-64.2c2-21.6,5.2-43.3,10.2-64.9c2.5-10.8,5.4-21.6,8.9-32.1
	c3.5-10.6,7.7-21,12.7-31c4-8.6,8.6-16.8,14.2-23.9c2.8-3.5,5.8-6.8,9.2-9.5c1.6-1.4,3.4-2.6,5.1-3.7c1.8-1.1,3.6-2.1,5.5-2.8
	c2.8-1.1,5.7-1.8,8.8-2.1c3.1-0.2,6.2,0.1,9.4,0.8c6.3,1.5,12.5,5.3,17.9,10.1c5.5,4.8,10.2,10.7,14.3,16.8
	c4.1,6.1,7.6,12.4,10.7,18.3c0.7-1.5,3.3,0.8,6.7,5.3c3.3,4.5,7.2,11.1,10.8,17.6c7.1,13,12.8,25.8,13.4,18.4
	c2.7,9,5.7,20.4,7.9,29.8c2.3,9.3,4,16.5,4.9,17.1c2.7,1.7,6,5.9,10,15.9c2,5,4,11.5,6,19.9c2,8.4,4,18.7,5.7,31.3
	c1.1,9.9,1.5,22.5,1.6,33.5c0.1,11-0.2,20.3,0.3,23.8c0.4,2.7,0.8,2.5,1.2,0.8s0.8-4.9,1.2-8.1c0.7-6.5,1.4-12.9,2.2-7.4
	c-0.3-37.1-3.5-73.9-10.3-110.3c-3.4-18.2-7.7-36.3-13.4-54.3c-5.7-17.9-12.6-35.8-22.3-53.2c-4.9-8.7-10.4-17.4-17.4-25.7
	c-3.5-4.2-7.3-8.3-11.7-12.2c-4.4-3.9-9.3-7.6-15-10.8c-5.7-3.2-12.2-5.8-19.2-7.3c-7-1.5-14.6-1.7-21.8-0.7
	c-7.2,1.1-14,3.4-19.9,6.4c-5.9,3-11.1,6.6-15.7,10.5c-9.1,7.7-16,16.3-21.9,24.9c-5.9,8.7-10.7,17.5-15,26.4
	c-8.5,17.9-14.8,36.1-19.9,54.5c-1.5,6.4-4.1,17.2-6.8,31.5c-2.7,14.3-5.5,32.1-7.7,52.4c-4.3,40.5-5.8,90.8-1.3,142.1
	c4.5,51.2,14.5,103.5,32.5,147.2c4.5,10.9,9.6,21.3,15.4,30.9c5.8,9.6,12.3,18.5,19.9,26.2c7.5,7.7,16.4,14.2,26.1,18.4
	c4.8,2.1,9.9,3.5,14.7,4.2c4.8,0.7,9.5,0.8,13.7,0.5c4.1-0.3,8-1.2,11.8-2.3c8.6-2.5,16.1-6.8,22.6-11.6
	c6.5-4.9,11.9-10.5,16.7-16.2c9.5-11.6,16.6-24,22.4-36.3c11.5-24.7,18-49.1,21.9-69.2c3.2-18.6,5.1-37.5,6.2-56.2
	c-2.1,8.5-4.2,16.3-6.3,23c3.5-18.7,5.8-37.5,5.5-44.9c0.5-10.1,0.3-16.2-0.1-19.5c-0.4-3.3-1-3.8-1.8-2.5
	c-1.6,2.5-3.9,11.8-6.5,19.2c-1.3,5.4-2.3,4.3-3.3,4c-1-0.3-2,0.2-3.9,8.6c1.5-12.2,2.2-18.4,3.2-30.7c-0.7-0.8-1.2,8.7-2,17.3
	c-0.8,8.6-1.8,16.2-2.5,11.8c2-11.7,2.3-25,3.1-37.2c-1.2,2.1-2,12.6-3.2,22.4c-1.1,9.8-2.5,18.8-3.4,17.7c0.2-3.3,1.9-11.8,3-19.8
	c1.2-8,1.9-15.5,0.7-16.8c-0.5-0.5-1.4,11.7-2.1,17.8c1.4-18.8,1.1-33.4,0.3-39c-0.9-5.6-2.2-2.2-4.5,14.7c0.4-5.9,1-13,1.5-20.3
	c0.5-7.2,0.7-14.6,0.5-20.8c0,0,0,0.1,0,0.1c-0.1,6.3-0.8,17-1,22.8c0.3-7.1,0.5-14.2,0.5-21.3c-0.4,1.1-0.7,2.4-1.1,3.7
	c-0.3,5.3-0.7,10.6-0.9,16.1c0.2-4.7,0.3-9.4,0.4-14.1c-0.9,3.5-1.8,7.6-2.6,12c-2.1,16.7-5.6,32.4-6.5,41.4
	c-1.9,18-4.5,36-8.1,53.6c-3.5,17.6-7.9,35-13.4,51.7c-2.8,8.3-5.8,16.5-9.2,24.4c-3.4,7.9-7.1,15.4-11.2,22.3
	c-4.1,6.9-8.7,13.3-13.4,18.2C567,601.7,562,605.2,558.3,606.4z"/>
<g>
	<path class="st1" d="M785.4-130.5H326.6C186.5-130.5,73-244.1,73-384.1v-52.4c0-140.1,113.5-253.6,253.6-253.6h458.8
		c140.1,0,253.6,113.5,253.6,253.6v52.4C1039-244.1,925.5-130.5,785.4-130.5z"/>
	<ellipse class="st1" cx="553.6" cy="-410.3" rx="103.4" ry="279.8"/>
</g>
<g>
	<g>
		<path class="st2" d="M2213.5-130.5c-109,0-218,0.7-327,1l-81.7,0h-40.9c-3.4,0-6.8,0-10.2,0l-10.3-0.3c-1.7,0-3.4-0.2-5.1-0.3
			l-5.1-0.4c-1.7-0.1-3.4-0.2-5.1-0.4l-5.1-0.6c-6.8-0.7-13.5-2-20.2-3.3l-10-2.3c-1.7-0.3-3.3-0.9-5-1.3l-4.9-1.4
			c-13.1-3.9-25.9-8.8-38.3-14.6c-12.3-6-24.1-12.9-35.4-20.7l-4.2-3c-1.4-1-2.8-2-4.1-3l-8.1-6.3l-7.8-6.7
			c-1.3-1.1-2.5-2.3-3.8-3.5l-3.7-3.5c-39.5-37.9-65.9-89.1-74.4-143.1c-2.1-13.5-3-27.2-3.1-40.9v-40.9c-0.5-27.2,2.2-54.8,10-81.1
			l1.4-4.9l1.6-4.9l1.6-4.9c0.3-0.8,0.5-1.6,0.8-2.4l0.9-2.4c1.3-3.2,2.5-6.4,3.8-9.5l4.2-9.3c5.9-12.3,12.8-24.2,20.5-35.5
			c7.7-11.3,16.5-21.9,25.9-31.7c9.5-9.8,19.7-19,30.6-27.2c11-8.2,22.6-15.5,34.6-21.9l4.6-2.3c1.5-0.8,3-1.6,4.6-2.3l9.3-4.2
			c6.3-2.6,12.7-5.2,19.2-7.2l4.9-1.6l4.9-1.4l4.9-1.4l2.5-0.7l2.5-0.6l10-2.3l10.1-1.8c13.5-2.1,27.2-3.2,40.9-3.3h327h81.7h40.9
			c3.4,0,6.8,0,10.2,0l10.3,0.3c1.7,0,3.4,0.2,5.1,0.3l5.1,0.4c1.7,0.1,3.4,0.2,5.1,0.4l5.1,0.6c6.8,0.7,13.5,2,20.2,3.3l10,2.3
			c1.7,0.3,3.3,0.9,5,1.3l4.9,1.4c13.1,3.9,25.9,8.8,38.3,14.6c12.3,6,24.1,12.9,35.4,20.7l4.2,3c1.4,1,2.8,2,4.1,3l8.1,6.3l7.8,6.7
			c1.3,1.1,2.5,2.3,3.8,3.5l3.7,3.5c39.5,37.9,65.9,89.1,74.4,143.1c2.1,13.5,3,27.2,3.1,40.9v40.9c0.5,27.2-2.1,54.9-10,81.1
			l-1.4,4.9l-1.7,4.9l-1.7,4.9c-0.3,0.8-0.5,1.6-0.8,2.4l-0.9,2.4c-1.3,3.2-2.5,6.4-3.8,9.5l-4.3,9.3c-6,12.3-12.9,24.1-20.6,35.4
			c-7.7,11.3-16.5,21.8-26,31.6c-9.5,9.8-19.7,18.9-30.7,27.1C2322.4-148.4,2268.1-130.4,2213.5-130.5z M2213.5-130.5
			c13.6-0.1,27.2-1.2,40.7-3.3l10.1-1.8l10-2.3l2.5-0.6l2.5-0.7l4.9-1.4l4.9-1.4l4.8-1.6c6.5-2.1,12.8-4.7,19.1-7.2l9.3-4.2
			c1.6-0.7,3-1.5,4.6-2.3l4.5-2.3c12-6.4,23.5-13.7,34.4-21.9c10.8-8.2,21-17.4,30.4-27.2c9.4-9.8,18.1-20.4,25.7-31.6
			c7.7-11.2,14.4-23,20.2-35.3l4.2-9.3c1.3-3.1,2.5-6.3,3.7-9.5l0.9-2.4c0.3-0.8,0.5-1.6,0.8-2.4l1.6-4.8l1.6-4.8l1.4-4.9
			c2-6.5,3.4-13.1,4.9-19.8l1.8-10c0.3-1.7,0.5-3.3,0.7-5l0.6-5c0.2-1.7,0.5-3.4,0.6-5.1l0.4-5.1l0.4-5.1c0.1-0.8,0.1-1.7,0.2-2.5
			l0.1-2.5l0.3-10.2v-10.2v-40.9c-0.1-13.6-1-27.1-3.1-40.6c-8.4-53.6-34.6-104.4-73.8-142l-3.7-3.5c-1.2-1.2-2.4-2.4-3.7-3.4
			l-7.7-6.7l-8-6.3c-1.3-1.1-2.7-2-4.1-3l-4.1-2.9c-11.1-7.7-22.9-14.6-35.1-20.6c-12.3-5.8-25-10.7-38-14.5l-4.9-1.4
			c-1.6-0.5-3.3-1-4.9-1.3l-9.9-2.3c-6.7-1.2-13.3-2.5-20.1-3.3l-5-0.6c-1.7-0.2-3.4-0.3-5.1-0.4l-5.1-0.4c-1.7-0.1-3.4-0.3-5.1-0.3
			l-10.2-0.3c-3.4-0.1-6.8,0-10.2,0h-40.9h-81.7h-327c-13.6,0.1-27.1,1.2-40.5,3.3l-10,1.8l-9.9,2.3l-2.5,0.6l-2.4,0.7l-4.9,1.4
			l-4.9,1.4l-4.8,1.6c-6.5,2.1-12.8,4.6-19,7.2l-9.3,4.2c-1.6,0.7-3,1.5-4.6,2.3l-4.5,2.3c-12,6.3-23.5,13.6-34.4,21.7
			c-10.8,8.2-21,17.3-30.4,27c-9.4,9.8-18.1,20.3-25.7,31.5c-7.7,11.2-14.5,23-20.4,35.2l-4.2,9.3c-1.3,3.1-2.5,6.3-3.8,9.5
			l-0.9,2.4c-0.3,0.8-0.6,1.6-0.8,2.4l-1.6,4.8l-1.6,4.8l-1.4,4.9c-2,6.5-3.4,13.1-4.9,19.7l-1.8,10c-0.3,1.7-0.5,3.4-0.7,5l-0.6,5
			c-0.2,1.7-0.5,3.4-0.6,5.1l-0.4,5.1l-0.4,5.1c-0.1,0.8-0.2,1.7-0.2,2.5l-0.1,2.5l-0.3,10.2v10.2v40.9c0.1,13.6,1,27.1,3.1,40.6
			c8.4,53.6,34.6,104.4,73.8,142l3.7,3.5c1.2,1.2,2.4,2.4,3.7,3.4l7.7,6.7l8,6.3c1.3,1.1,2.7,2,4.1,3l4.1,2.9
			c11.1,7.7,22.9,14.6,35.1,20.6c12.3,5.8,25,10.7,38,14.5l4.9,1.4c1.6,0.5,3.3,1,4.9,1.3l9.9,2.3c6.7,1.2,13.3,2.5,20.1,3.3l5,0.6
			c1.7,0.2,3.4,0.3,5.1,0.4l5.1,0.4c1.7,0.1,3.4,0.3,5.1,0.3l10.2,0.3c3.4,0.1,6.8,0,10.2,0h40.9l81.7,0
			C1995.5-131.3,2104.5-130.5,2213.5-130.5z"/>
	</g>
	<g>
		<path class="st2" d="M1981.7-690.2c6.6,0,13.2,1.7,19.1,4.7c3,1.5,5.8,3.2,8.4,5.2c2.6,2,5.2,4.1,7.5,6.4
			c9.5,9.2,17,20.3,23.4,31.9c6.4,11.6,11.7,23.8,16.3,36.2c4.6,12.4,8.4,25.1,11.7,37.9c3.3,12.8,5.9,25.8,8.2,38.9
			c2.3,13,4.1,26.2,5.5,39.3c2.9,26.3,4.2,52.8,4.2,79.3c0,26.5-1.4,52.9-4.2,79.3c-2.9,26.3-7.2,52.5-13.7,78.2
			c-3.2,12.8-7,25.6-11.5,38c-4.5,12.5-9.7,24.7-16,36.4c-6.3,11.6-13.8,22.9-23.4,32.2c-2.4,2.4-4.9,4.5-7.6,6.5
			c-2.7,2-5.5,3.8-8.5,5.3c-6,3-12.7,4.9-19.5,4.9c-6.8,0-13.5-1.8-19.5-4.9c-3-1.5-5.9-3.3-8.5-5.3c-2.7-2-5.2-4.2-7.6-6.5
			c-9.6-9.4-17-20.6-23.4-32.2c-6.3-11.7-11.5-23.9-16-36.4c-4.5-12.5-8.3-25.2-11.5-38c-6.4-25.7-10.8-51.9-13.7-78.2
			c-2.9-26.3-4.2-52.8-4.2-79.3c0-26.5,1.4-52.9,4.2-79.3c2.9-26.3,7.2-52.5,13.7-78.2c3.3-12.8,7.2-25.5,11.8-37.9
			c4.6-12.4,9.9-24.6,16.3-36.2c6.4-11.6,13.9-22.7,23.4-31.9c2.4-2.3,4.9-4.4,7.5-6.4c2.6-2,5.5-3.7,8.4-5.2
			C1968.5-688.4,1975.1-690.2,1981.7-690.2z M1981.7-690.2c-6.6,0-13.2,1.8-19,4.8c-3,1.5-5.7,3.3-8.4,5.2c-2.6,2-5.2,4.1-7.5,6.5
			c-2.4,2.3-4.6,4.7-6.7,7.3c-1.1,1.3-2,2.6-3.1,3.9c-1,1.3-2,2.6-2.9,4c-3.8,5.4-7.2,11.1-10.3,16.9c-6.2,11.7-11.3,23.9-15.6,36.3
			c-4.4,12.4-8,25.1-11.1,38c-6.4,25.6-10.8,51.7-13.6,77.9c-2.8,26.2-4.2,52.6-4.2,79c0,26.4,1.3,52.8,4.2,79
			c2.9,26.2,7.2,52.3,13.6,77.9c3.2,12.8,7,25.4,11.4,37.8c4.5,12.4,9.6,24.5,15.9,36.1c6.3,11.5,13.6,22.6,23,31.7
			c2.3,2.3,4.8,4.4,7.4,6.4c2.6,2,5.4,3.7,8.3,5.1c5.8,2.9,12.2,4.7,18.6,4.7c6.5,0,12.8-1.7,18.6-4.7c2.9-1.4,5.7-3.2,8.3-5.1
			c2.6-2,5.1-4.1,7.4-6.4c9.3-9.2,16.7-20.2,23-31.7c6.3-11.6,11.4-23.7,15.9-36.1c4.5-12.4,8.2-25.1,11.4-37.8
			c6.4-25.6,10.8-51.7,13.6-77.9c2.8-26.2,4.2-52.6,4.2-79c0-26.4-1.3-52.8-4.2-79c-2.9-26.2-7.2-52.3-13.6-77.9
			c-3.1-12.8-6.8-25.5-11.2-37.9c-4.4-12.4-9.4-24.7-15.6-36.3c-3.1-5.8-6.5-11.5-10.3-16.9c-0.9-1.4-1.9-2.7-2.9-4
			c-1-1.3-2-2.6-3.1-3.9c-2.1-2.6-4.3-5-6.7-7.3c-2.3-2.3-4.9-4.5-7.5-6.5c-2.6-2-5.4-3.8-8.4-5.2
			C1994.9-688.3,1988.3-690.1,1981.7-690.2z"/>
	</g>
</g>
<path class="st3" d="M433.5,365c0-132.6,26.5-203.1,54.5-248.3l-141.1-0.5c-122.2,0-226.1,92.5-226.1,225.4v46.6
	c0,129.6,94.2,219,203.6,219l163.3,1.3C468.9,584.6,433.5,494.1,433.5,365z"/>
<path class="st1" d="M785.4-1330.4H559.8c54.3,8.7,97.4,130.6,97.4,279.8c0,149.2-43,271.1-97.4,279.8h225.6
	c140.1,0,253.6-113.5,253.6-253.6v-52.4C1039-1216.8,925.5-1330.4,785.4-1330.4z"/>
<path class="st1" d="M553.6-770.2c2.1,0,4.2-0.2,6.2-0.5h-12.5C549.4-770.4,551.5-770.2,553.6-770.2z"/>
<path class="st1" d="M553.6-1330.9c-2.1,0-4.1,0.2-6.2,0.5h12.4C557.7-1330.7,555.6-1330.9,553.6-1330.9z"/>
<path class="st1" d="M657.2-1050.5c0-149.2-43.1-271.2-97.4-279.8h-12.4c-54.3,8.7-97.4,130.6-97.4,279.8
	c0,149.2,43,271.1,97.4,279.8h12.5C614.1-779.5,657.2-901.4,657.2-1050.5z"/>
</svg>
